<?xml version="1.0" encoding="UTF-8" standalone="no"?>
<!-- Generator: Adobe Illustrator 13.0.0, SVG Export Plug-In . SVG Version: 6.00 Build 14948)  -->

<svg
   version="1.1"
   id="Layer_1"
   x="0px"
   y="0px"
   width="256"
   height="256"
   viewBox="0 0 256 256"
   enable-background="new 0 0 169.992 76.536"
   xml:space="preserve"
   inkscape:version="1.4 (86a8ad7, 2024-10-11)"
   sodipodi:docname="DC Icont.svg"
   xmlns:inkscape="http://www.inkscape.org/namespaces/inkscape"
   xmlns:sodipodi="http://sodipodi.sourceforge.net/DTD/sodipodi-0.dtd"
   xmlns="http://www.w3.org/2000/svg"
   xmlns:svg="http://www.w3.org/2000/svg"
   xmlns:rdf="http://www.w3.org/1999/02/22-rdf-syntax-ns#"
   xmlns:cc="http://creativecommons.org/ns#"
   xmlns:dc="http://purl.org/dc/elements/1.1/"><metadata
   id="metadata2922"><rdf:RDF><cc:Work
       rdf:about=""><dc:format>image/svg+xml</dc:format><dc:type
         rdf:resource="http://purl.org/dc/dcmitype/StillImage" /></cc:Work></rdf:RDF></metadata><defs
   id="defs2920"><inkscape:path-effect
     effect="fillet_chamfer"
     id="path-effect4"
     is_visible="true"
     lpeversion="1"
     nodesatellites_param="F,0,0,1,0,0,0,1 @ F,0,0,1,0,0,0,1 @ F,0,0,1,0,0,0,1 @ F,0,0,1,0,0,0,1"
     radius="0"
     unit="px"
     method="auto"
     mode="F"
     chamfer_steps="1"
     flexible="false"
     use_knot_distance="true"
     apply_no_radius="true"
     apply_with_radius="true"
     only_selected="false"
     hide_knots="false" /><inkscape:path-effect
     effect="fillet_chamfer"
     id="path-effect3"
     is_visible="true"
     lpeversion="1"
     nodesatellites_param="F,0,0,1,0,0,0,1 @ F,0,0,1,0,0.27678131,0,1 @ F,0,0,1,0,0,0,1 @ F,0,0,1,0,0,0,1 @ F,0,0,1,0,0,0,1 @ F,0,0,1,0,0,0,1 @ F,0,0,1,0,0,0,1 @ F,0,0,1,0,0,0,1"
     radius="0"
     unit="px"
     method="auto"
     mode="F"
     chamfer_steps="1"
     flexible="false"
     use_knot_distance="true"
     apply_no_radius="true"
     apply_with_radius="true"
     only_selected="false"
     hide_knots="false" /><inkscape:path-effect
     effect="fillet_chamfer"
     id="path-effect2"
     is_visible="true"
     lpeversion="1"
     nodesatellites_param="F,0,0,1,0,0,0,1 @ F,0,0,1,0,3.625,0,1 @ F,0,0,1,0,0,0,1 @ F,0,0,1,0,0,0,1"
     radius="0"
     unit="px"
     method="auto"
     mode="F"
     chamfer_steps="1"
     flexible="false"
     use_knot_distance="true"
     apply_no_radius="true"
     apply_with_radius="true"
     only_selected="false"
     hide_knots="false" /><inkscape:perspective
     sodipodi:type="inkscape:persp3d"
     inkscape:vp_x="0 : 217.73201 : 1"
     inkscape:vp_y="0 : 1000 : 0"
     inkscape:vp_z="169.992 : 217.73201 : 1"
     inkscape:persp3d-origin="84.996004 : 204.976 : 1"
     id="perspective2924" /><filter
     inkscape:label="Monochrome Transparency"
     inkscape:menu="Fill and Transparency"
     inkscape:menu-tooltip="Convert to a colorizable transparent positive or negative"
     style="color-interpolation-filters:sRGB"
     id="filter4"
     x="0"
     y="0"
     width="1"
     height="1"><feColorMatrix
       type="luminanceToAlpha"
       result="fbSourceGraphic"
       id="feColorMatrix3" /><feFlood
       flood-color="rgb(134,39,24)"
       result="result1"
       flood-opacity="1"
       id="feFlood3" /><feComposite
       operator="out"
       in2="fbSourceGraphic"
       result="result2"
       id="feComposite3" /><feComposite
       operator="in"
       in2="SourceGraphic"
       id="feComposite4" /></filter><filter
     inkscape:label="Monochrome Transparency"
     inkscape:menu="Fill and Transparency"
     inkscape:menu-tooltip="Convert to a colorizable transparent positive or negative"
     style="color-interpolation-filters:sRGB"
     id="filter6"
     x="0"
     y="0"
     width="1"
     height="1"><feColorMatrix
       type="luminanceToAlpha"
       result="fbSourceGraphic"
       id="feColorMatrix4" /><feFlood
       flood-color="rgb(134,39,24)"
       result="result1"
       flood-opacity="1"
       id="feFlood4" /><feComposite
       operator="out"
       in2="fbSourceGraphic"
       result="result2"
       id="feComposite5" /><feComposite
       operator="in"
       in2="SourceGraphic"
       id="feComposite6" /></filter></defs><sodipodi:namedview
   pagecolor="#ffffff"
   bordercolor="#666666"
   borderopacity="1"
   objecttolerance="10"
   gridtolerance="10"
   guidetolerance="10"
   inkscape:pageopacity="0"
   inkscape:pageshadow="2"
   inkscape:window-width="2560"
   inkscape:window-height="1369"
   id="namedview2918"
   showgrid="false"
   inkscape:zoom="1.4142136"
   inkscape:cx="23.334524"
   inkscape:cy="132.58252"
   inkscape:window-x="-8"
   inkscape:window-y="-8"
   inkscape:window-maximized="1"
   inkscape:current-layer="layer5"
   inkscape:showpageshadow="2"
   inkscape:pagecheckerboard="0"
   inkscape:deskcolor="#d1d1d1" />

<g
   inkscape:groupmode="layer"
   id="layer2"
   inkscape:label="Black Outline"
   style="display:inline"
   transform="translate(85,77)"
   sodipodi:insensitive="true"><circle
     style="fill:#000000;fill-opacity:1"
     id="path8"
     cx="43"
     cy="51"
     r="128" /></g><g
   inkscape:groupmode="layer"
   id="layer5"
   inkscape:label="Inner Outline"
   style="display:inline"
   transform="translate(85,77)"><circle
     style="display:inline;fill:#fff200;fill-opacity:1"
     id="path9"
     cx="43"
     cy="49"
     r="96" /></g><g
   inkscape:groupmode="layer"
   id="layer3"
   inkscape:label="Logo Bold"
   style="display:inline"
   transform="translate(84.79205,80.175618)"
   sodipodi:insensitive="true"><g
     id="g7"
     inkscape:label="Logo Group"
     transform="matrix(1.2358743,-0.57629763,0.57629763,1.2358743,71.706915,98.161454)"><path
       d="m -66,-62.348445 v 4.93885 h 2.058558 c 1.79656,0 3.043173,0.0743 3.618073,0.217434 0.574899,0.2147 1.000833,0.428158 1.21642,0.714425 0.28745,0.357834 0.436664,1.069773 0.436664,2.143274 v 19.444781 c 0,1.145067 -0.158696,1.888069 -0.374283,2.174336 -0.359312,0.4294 -0.797473,0.695539 -1.372372,0.838673 -0.574899,0.2147 -1.727942,0.279557 -3.524502,0.279557 H -66 v 4.93885 h 28.289582 c 1.724697,0 3.962912,-0.06486 6.549958,-0.279557 1.006074,-0.07157 2.093991,-0.207991 3.243789,-0.279558 4.096157,-0.4294 7.25411,-0.91844 9.481845,-1.490973 3.01822,-0.858801 5.740757,-2.0814 8.327804,-3.727434 2.587046,-1.574468 4.539058,-3.431973 5.832582,-5.435842 1.293523,-2.075435 1.933797,-4.381474 1.933797,-6.957876 0,-3.72147 -1.29003,-6.856988 -3.805214,-9.504957 -2.587046,-2.647969 -6.043428,-4.66625 -10.355172,-6.026018 -3.736845,-1.145067 -8.622989,-1.844831 -14.659431,-1.987965 h -2.713554 z m 22.394619,5.715399 h 6.768291 c 2.155872,0 4.023795,0.06486 5.67663,0.279558 1.652835,0.2147 3.09208,0.511901 4.241878,0.869734 2.299597,0.787234 4.323472,2.136814 5.832582,4.069116 1.580973,1.932301 2.370461,4.226164 2.370461,6.802566 0,2.64797 -0.873577,4.870266 -2.526412,6.802567 -1.652836,1.860735 -3.89105,3.303501 -6.549959,4.162302 -1.006073,0.286267 -2.146889,0.561848 -3.36855,0.776548 -2.227734,0.286267 -4.872919,0.496992 -7.89114,0.496992 -1.724698,0 -2.874995,-0.05268 -3.306169,-0.124248 -0.431175,-0.07157 -0.813692,-0.313353 -1.02928,-0.528053 -0.143724,-0.214701 -0.218332,-0.641616 -0.218332,-1.42885 z"
       id="path2962"
       style="display:inline;fill:#000000;fill-opacity:1;stroke-width:0.996034"
       inkscape:label="D" /><path
       d="m 51.483795,-62.355899 h 6.252029 l 6.036442,12.810444 -8.192314,1.359768 c -2.730771,-3.005802 -5.245955,-5.224371 -7.689277,-6.441005 -3.30567,-1.789169 -6.970653,-2.64797 -10.851222,-2.64797 -2.874496,0 -5.533405,0.429401 -7.976727,1.359768 -2.515183,0.930368 -4.455468,2.290136 -5.892716,4.079304 -1.437248,1.789168 -2.155872,3.864604 -2.155872,6.297872 0,3.649904 1.652835,6.79884 4.958505,9.446809 3.305671,2.647969 7.689277,4.007737 13.078957,4.007737 3.449395,0 6.755066,-0.572534 9.917011,-1.717602 3.952432,-1.431334 7.329965,-3.363636 10.276323,-5.725338 L 66,-36.591876 c -4.383606,3.50677 -8.479763,6.011605 -12.144746,7.371373 C 48.249987,-27.073501 41.926096,-26 34.955443,-26 c -5.748992,0 -10.994947,-0.858801 -15.666003,-2.433269 -4.671056,-1.646035 -8.407901,-3.864603 -11.210534,-6.798839 -2.802634,-2.86267 -4.168019,-6.083172 -4.168019,-9.518376 0,-3.363636 1.365385,-6.512572 4.096156,-9.303675 2.658909,-2.791102 6.395754,-5.009671 11.06681,-6.584139 C 23.744909,-62.212766 28.990864,-63 34.739856,-63 c 5.820854,0 10.923085,0.715667 15.306691,2.147002 z"
       id="path2914"
       style="display:inline;fill:#000000;fill-opacity:1;stroke-width:0.996034"
       inkscape:label="C" /></g></g></svg>
