<?xml version="1.0" encoding="UTF-8" standalone="no"?>
<!-- Generator: Adobe Illustrator 13.0.0, SVG Export Plug-In . SVG Version: 6.00 Build 14948)  -->

<svg
   version="1.1"
   id="Layer_1"
   x="0px"
   y="0px"
   width="170"
   height="77"
   viewBox="0 0 170 77"
   enable-background="new 0 0 169.992 76.536"
   xml:space="preserve"
   inkscape:version="1.4 (86a8ad7, 2024-10-11)"
   sodipodi:docname="Logo_DC nieuw.svg"
   xmlns:inkscape="http://www.inkscape.org/namespaces/inkscape"
   xmlns:sodipodi="http://sodipodi.sourceforge.net/DTD/sodipodi-0.dtd"
   xmlns="http://www.w3.org/2000/svg"
   xmlns:svg="http://www.w3.org/2000/svg"
   xmlns:rdf="http://www.w3.org/1999/02/22-rdf-syntax-ns#"
   xmlns:cc="http://creativecommons.org/ns#"
   xmlns:dc="http://purl.org/dc/elements/1.1/"><metadata
   id="metadata2922"><rdf:RDF><cc:Work
       rdf:about=""><dc:format>image/svg+xml</dc:format><dc:type
         rdf:resource="http://purl.org/dc/dcmitype/StillImage" /></cc:Work></rdf:RDF></metadata><defs
   id="defs2920"><inkscape:path-effect
     effect="fillet_chamfer"
     id="path-effect4"
     is_visible="true"
     lpeversion="1"
     nodesatellites_param="F,0,0,1,0,0,0,1 @ F,0,0,1,0,0,0,1 @ F,0,0,1,0,0,0,1 @ F,0,0,1,0,0,0,1"
     radius="0"
     unit="px"
     method="auto"
     mode="F"
     chamfer_steps="1"
     flexible="false"
     use_knot_distance="true"
     apply_no_radius="true"
     apply_with_radius="true"
     only_selected="false"
     hide_knots="false" /><inkscape:path-effect
     effect="fillet_chamfer"
     id="path-effect3"
     is_visible="true"
     lpeversion="1"
     nodesatellites_param="F,0,0,1,0,0,0,1 @ F,0,0,1,0,0.27678131,0,1 @ F,0,0,1,0,0,0,1 @ F,0,0,1,0,0,0,1 @ F,0,0,1,0,0,0,1 @ F,0,0,1,0,0,0,1 @ F,0,0,1,0,0,0,1 @ F,0,0,1,0,0,0,1"
     radius="0"
     unit="px"
     method="auto"
     mode="F"
     chamfer_steps="1"
     flexible="false"
     use_knot_distance="true"
     apply_no_radius="true"
     apply_with_radius="true"
     only_selected="false"
     hide_knots="false" /><inkscape:path-effect
     effect="fillet_chamfer"
     id="path-effect2"
     is_visible="true"
     lpeversion="1"
     nodesatellites_param="F,0,0,1,0,0,0,1 @ F,0,0,1,0,3.625,0,1 @ F,0,0,1,0,0,0,1 @ F,0,0,1,0,0,0,1"
     radius="0"
     unit="px"
     method="auto"
     mode="F"
     chamfer_steps="1"
     flexible="false"
     use_knot_distance="true"
     apply_no_radius="true"
     apply_with_radius="true"
     only_selected="false"
     hide_knots="false" /><inkscape:perspective
     sodipodi:type="inkscape:persp3d"
     inkscape:vp_x="0 : 38.732005 : 1"
     inkscape:vp_y="0 : 1000 : 0"
     inkscape:vp_z="169.992 : 38.732005 : 1"
     inkscape:persp3d-origin="84.996004 : 25.975996 : 1"
     id="perspective2924" /><filter
     inkscape:label="Monochrome Transparency"
     inkscape:menu="Fill and Transparency"
     inkscape:menu-tooltip="Convert to a colorizable transparent positive or negative"
     style="color-interpolation-filters:sRGB;"
     id="filter4"
     x="0"
     y="0"
     width="1"
     height="1"><feColorMatrix
       type="luminanceToAlpha"
       result="fbSourceGraphic"
       id="feColorMatrix3" /><feFlood
       flood-color="rgb(134,39,24)"
       result="result1"
       flood-opacity="1"
       id="feFlood3" /><feComposite
       operator="out"
       in2="fbSourceGraphic"
       result="result2"
       id="feComposite3" /><feComposite
       operator="in"
       in2="SourceGraphic"
       id="feComposite4" /></filter><filter
     inkscape:label="Monochrome Transparency"
     inkscape:menu="Fill and Transparency"
     inkscape:menu-tooltip="Convert to a colorizable transparent positive or negative"
     style="color-interpolation-filters:sRGB;"
     id="filter6"
     x="0"
     y="0"
     width="1"
     height="1"><feColorMatrix
       type="luminanceToAlpha"
       result="fbSourceGraphic"
       id="feColorMatrix4" /><feFlood
       flood-color="rgb(134,39,24)"
       result="result1"
       flood-opacity="1"
       id="feFlood4" /><feComposite
       operator="out"
       in2="fbSourceGraphic"
       result="result2"
       id="feComposite5" /><feComposite
       operator="in"
       in2="SourceGraphic"
       id="feComposite6" /></filter></defs><sodipodi:namedview
   pagecolor="#ffffff"
   bordercolor="#666666"
   borderopacity="1"
   objecttolerance="10"
   gridtolerance="10"
   guidetolerance="10"
   inkscape:pageopacity="0"
   inkscape:pageshadow="2"
   inkscape:window-width="2560"
   inkscape:window-height="1369"
   id="namedview2918"
   showgrid="false"
   inkscape:zoom="4"
   inkscape:cx="108"
   inkscape:cy="57.875"
   inkscape:window-x="-8"
   inkscape:window-y="-8"
   inkscape:window-maximized="1"
   inkscape:current-layer="layer4"
   inkscape:showpageshadow="2"
   inkscape:pagecheckerboard="0"
   inkscape:deskcolor="#d1d1d1" />

<g
   inkscape:groupmode="layer"
   id="layer1"
   inkscape:label="Background"
   style="display:inline"
   transform="translate(85,77)"
   sodipodi:insensitive="true"><rect
     style="display:inline;fill:#fff200;fill-opacity:1;stroke-width:1.00055"
     id="rect1"
     width="170"
     height="77"
     x="-85"
     y="-77"
     rx="3.5"
     ry="3.5"
     inkscape:label="Background"
     sodipodi:insensitive="true" /></g><g
   inkscape:groupmode="layer"
   id="layer2"
   inkscape:label="Black Outline"
   style="display:inline"
   transform="translate(85,77)"
   sodipodi:insensitive="true"><rect
     style="fill:#000000;fill-opacity:1"
     id="rect2"
     width="170"
     height="77"
     x="-85"
     y="-77"
     rx="3.5"
     ry="3.5"
     inkscape:label="Black Outline"
     sodipodi:insensitive="true" /></g><g
   inkscape:groupmode="layer"
   id="layer5"
   inkscape:label="Inner Outline"
   style="display:inline"
   transform="translate(85,77)"
   sodipodi:insensitive="true"><rect
     style="display:inline;mix-blend-mode:normal;fill:#fff200;fill-opacity:1;stroke-width:2.30966"
     id="rect3"
     width="150"
     height="45"
     x="-75"
     y="-67"
     rx="2"
     ry="2"
     inkscape:label="Inner Outline"
     sodipodi:insensitive="true" /></g><g
   inkscape:groupmode="layer"
   id="layer4"
   inkscape:label="Logo Text"
   style="display:inline"
   transform="translate(85,77)"><path
     d="m -67.048927,-15.5 h 0.856269 v 7.0169504 c 0,0.281166 0.06116,0.4178442 0.06116,0.4881357 0,0.070292 0.08245,0.1525423 0.152906,0.1525423 0.140917,0.070292 0.351071,0.061017 0.703364,0.061017 h 0.428134 v 1.1288139 l -3.730888,0.1525423 v -0.6406779 c -0.493211,0.2108745 -0.993272,0.3475525 -1.345566,0.4881356 h -0.152905 c -0.352294,0.140583 -0.769909,0.1525423 -1.192661,0.1525423 -0.634128,0 -1.271193,-0.084936 -1.834863,-0.3661018 -0.563668,-0.2811662 -0.99327,-0.636773 -1.345564,-1.1288138 C -74.801835,-8.4869547 -75,-9.0495313 -75,-9.6118634 c 0,-0.6326236 0.198165,-1.1859256 0.550459,-1.6779666 0.352294,-0.492041 0.843058,-0.847647 1.406728,-1.128814 0.56367,-0.281165 1.222019,-0.335592 1.926606,-0.335592 0.422752,0 0.757921,-0.0093 1.039756,0.06102 h 0.152905 c 0.281835,0.07029 0.6263,0.19501 0.978594,0.335593 v -1.464408 h -0.978594 -0.275229 v -1.128812 c 0.140917,0 0.20477,-0.06102 0.275229,-0.06102 0.56367,0 1.045138,-0.08225 1.46789,-0.152542 0.422753,-0.0703 0.913518,-0.19501 1.406729,-0.335595 z m 16.483185,0 h 0.795108 v 7.1084758 c 0,0.2108746 0.06116,0.3263188 0.06116,0.3966103 0.07046,0.070292 0.134312,0.1525423 0.27523,0.1525423 0.07046,0.070292 0.280612,0.061017 0.703364,0.061017 h 0.27523 v 1.1288141 h -2.66055 -2.691132 v -1.1288139 h 0.366972 c 0.352294,0 0.562447,0.00928 0.703364,-0.061017 0.07046,0 0.143609,-0.082251 0.214068,-0.1525423 0,-0.070292 0.06116,-0.1857357 0.06116,-0.3966103 v -5.43051 h -1.345566 v -1.128812 c 0.915964,-0.0703 1.775168,-0.216246 2.691132,-0.427121 0.211376,0 0.339083,-0.05173 0.550458,-0.122033 z m 7.981655,0 c 0.845505,0 1.555719,0.145952 2.04893,0.427118 0,0 0.06116,-0.0093 0.06116,0.06102 0.422752,0.210876 0.642202,0.481545 0.642202,0.762712 0,0.210874 -0.09443,0.439079 -0.30581,0.579661 -0.140917,0.07127 -0.195474,0.122035 -0.336392,0.122035 -0.140917,0.0703 -0.369664,0.152542 -0.58104,0.152542 -0.140917,0 -0.256636,-0.06102 -0.397554,-0.06102 -0.140917,0 -0.226054,-0.08225 -0.366972,-0.152542 -0.07046,0 -0.216759,-0.133993 -0.428135,-0.274576 -0.211376,-0.140583 -0.357676,-0.274576 -0.428134,-0.274576 -0.07046,0 -0.143609,-0.09153 -0.214068,-0.09153 -0.211376,0 -0.348379,0.07298 -0.489296,0.213559 -0.140918,0.140584 -0.122325,0.371472 -0.122325,0.793222 v 0.610169 h 1.345566 v 1.281356 h -1.345566 v 2.9593228 0.3966102 c 0.07046,0.070292 0.143609,0.1525424 0.214068,0.1525424 0.07046,0.070292 0.268623,0.061017 0.550458,0.061017 h 0.489297 v 1.1288137 h -1.46789 -3.822632 v -1.1288137 h 0.428136 c 0.281834,0 0.51058,0.00928 0.581039,-0.061017 0.07046,0 0.143609,-0.082251 0.214068,-0.1525424 0,-0.070292 0.06116,-0.1857356 0.06116,-0.3966102 v -2.9593198 h -1.284405 v -1.281356 h 1.284405 v -0.610166 c 0,-0.492041 0.06385,-0.847649 0.275229,-1.128815 0.281835,-0.281166 0.720734,-0.582345 1.284405,-0.79322 0.352293,-0.140583 0.626299,-0.204284 0.978593,-0.274576 0.352294,0 0.779205,-0.06102 1.131499,-0.06102 z m 92.018377,0 c 0.42275,0 0.84966,0.124718 1.1315,0.335593 0.28183,0.210875 0.39755,0.512054 0.39755,0.79322 0,0.281167 -0.11572,0.551837 -0.39755,0.762712 -0.28184,0.210875 -0.70875,0.366104 -1.1315,0.366104 -0.42276,0 -0.7792,-0.155229 -1.13149,-0.366104 -0.28184,-0.210875 -0.42814,-0.481545 -0.42814,-0.762712 0,-0.281166 0.1463,-0.582345 0.42814,-0.79322 C 48.65509,-15.375282 49.01153,-15.5 49.43429,-15.5 Z m -88.165165,0.762712 h 1.284404 0.428134 v 2.105085 h 2.752296 v 1.281356 h -2.752296 v 2.1050854 c 0,0.4920407 -0.0093,0.7746712 0.06116,0.9152544 0.07046,0.140583 0.216758,0.2042846 0.428135,0.2745763 0.281834,0.140583 0.565137,0.2135593 0.917431,0.2135593 0.56367,0 1.108991,-0.1459524 1.74312,-0.4271188 v 1.2813563 c -0.56367,0.2108745 -0.983976,0.2653018 -1.406728,0.3355933 -0.352294,0.070292 -0.831071,0.1525423 -1.253823,0.1525423 -0.352294,0 -0.635597,-0.091525 -0.917432,-0.091525 -0.211376,0 -0.34838,-0.061017 -0.489296,-0.061017 -0.422753,-0.1405831 -0.788502,-0.2865357 -1.070337,-0.4271189 -0.281836,-0.2108746 -0.501285,-0.3382779 -0.642202,-0.5491526 -0.07046,-0.2108745 -0.122325,-0.5027797 -0.122325,-0.8542373 v -2.8677967 h -0.703364 -0.642202 v -1.189831 c 0.281835,0 0.501285,-0.08225 0.642202,-0.152542 0.211377,-0.07029 0.409541,-0.204285 0.550459,-0.274576 0.352294,-0.210875 0.65419,-0.42053 0.795107,-0.701697 0.211377,-0.281165 0.327096,-0.646047 0.397554,-1.067796 z m 79.633055,0 h 1.19266 0.42813 v 2.105085 h 2.81346 v 1.281356 h -2.81346 v 2.1050854 c 0,0.4920407 0.0824,0.7746712 0.15291,0.9152544 0.0705,0.140583 0.18617,0.2042846 0.39755,0.2745763 0.21138,0.140583 0.50398,0.2135593 0.85627,0.2135593 0.63413,0 1.21003,-0.1459524 1.7737,-0.4271188 v 1.2813563 c -0.49321,0.2108745 -0.92281,0.2653018 -1.34556,0.3355933 -0.42276,0.070292 -0.85236,0.1525423 -1.34557,0.1525423 -0.28184,0 -0.6356,-0.091525 -0.91743,-0.091525 -0.14092,0 -0.34838,-0.061017 -0.4893,-0.061017 -0.42275,-0.1405831 -0.78849,-0.2865357 -1.07033,-0.4271189 -0.28184,-0.2108746 -0.48,-0.3382779 -0.55046,-0.5491526 -0.14092,-0.2108745 -0.21407,-0.5027797 -0.21407,-0.8542373 v -2.8677967 h -1.25382 v -1.189831 c 0.49321,-0.07029 0.84037,-0.216244 1.19266,-0.427118 0.28184,-0.210875 0.55315,-0.42053 0.76453,-0.701697 0.21137,-0.281165 0.35767,-0.645071 0.42813,-1.067796 z m -100.886885,1.983052 c 0.194863,-0.01647 0.400245,0 0.611621,0 h 0.214068 c 0.56367,0 1.066422,-0.01855 1.559633,0.122033 0.493211,0.140583 0.90153,0.277261 1.253823,0.488136 0.352294,0.210874 0.644893,0.512054 0.85627,0.79322 0.211376,0.351458 0.357676,0.624814 0.428134,0.976272 0.07046,0.140583 0.06116,0.411254 0.06116,0.7627116 h -4.37309 -1.406728 c 0,0.4920407 0.21945,0.9298985 0.642202,1.2813562 0.211376,0.140583 0.482692,0.2653018 0.764526,0.3355933 0.211377,0.070292 0.491989,0.1525423 0.703364,0.1525423 0.422753,0 0.861652,-0.1339931 1.284405,-0.2745764 0.493211,-0.1405831 0.922813,-0.4205288 1.345566,-0.7016949 l 1.192661,0.762712 c -0.704588,0.5623322 -1.344343,0.9789562 -2.04893,1.1898306 -0.704588,0.2811663 -1.478655,0.3661018 -2.32416,0.3661018 h -0.152906 c -1.197798,0 -2.233884,-0.2826305 -3.149848,-0.9152543 -0.845505,-0.6326239 -1.345566,-1.3438376 -1.345566,-2.2576276 0,-0.5623326 0.21945,-1.1249086 0.642202,-1.6169496 0.422753,-0.421749 0.906912,-0.847647 1.681958,-1.128814 0.475596,-0.158155 0.975046,-0.286169 1.559633,-0.335592 z m 37.064235,0 c 0.19486,-0.01647 0.40024,0 0.61162,0 h 0.36697 c 1.1978,0 2.17004,0.127403 2.87462,0.549152 0.77504,0.351457 1.13149,0.768081 1.13149,1.189831 0,0.210874 0.0186,0.347552 -0.12232,0.488135 -0.14092,0.140583 -0.2992,0.29581 -0.58104,0.366102 -0.21137,0.07029 -0.48268,0.152542 -0.76452,0.152542 -0.21137,0 -0.44012,-0.09153 -0.58104,-0.09153 -0.14092,-0.07029 -0.28722,-0.133993 -0.42813,-0.274576 -0.0705,0 -0.13432,-0.155227 -0.27523,-0.366102 -0.21138,-0.281166 -0.34838,-0.417844 -0.4893,-0.488135 -0.0705,-0.140583 -0.19548,-0.21356 -0.33639,-0.21356 -0.14092,-0.07029 -0.3085,-0.06102 -0.51988,-0.06102 h -0.27523 c -0.14092,0 -0.33908,0.07298 -0.55046,0.21356 -0.28184,0.140583 -0.50129,0.267987 -0.6422,0.549153 -0.21138,0.281166 -0.27523,0.634088 -0.27523,0.9152543 0,0.4217491 0.0639,0.716339 0.27523,1.0677966 0.21137,0.2811662 0.50397,0.5000949 0.85627,0.6406781 0.14091,0.070292 0.26593,0.122034 0.33639,0.122034 0.28183,0.070292 0.51327,0.091525 0.79511,0.091525 0.42275,0 0.83107,-0.072977 1.25382,-0.2135593 0.3523,-0.1405832 0.86165,-0.4417628 1.28441,-0.7932204 l 1.25381,0.7932204 c -0.63413,0.5623324 -1.33504,0.9696816 -2.11008,1.2508476 -0.70459,0.210876 -1.47866,0.366103 -2.32417,0.366103 h -0.1529 c -1.26826,0 -2.30435,-0.2826305 -3.14985,-0.9152543 -0.91596,-0.5623324 -1.34556,-1.3531121 -1.34556,-2.1966106 0,-0.6326234 0.21945,-1.1249084 0.64219,-1.6169494 0.3523,-0.492041 0.97737,-0.908665 1.68196,-1.189831 0.4756,-0.158156 0.97505,-0.286169 1.55964,-0.335593 z m 10.39756,0 c 0.22899,-0.01647 0.48734,0 0.73394,0 0.98642,0 1.83364,0.124718 2.53822,0.335592 0.77505,0.281167 1.32967,0.636773 1.68196,1.128814 0.42276,0.492041 0.55046,0.984326 0.55046,1.6169496 0,0.9840815 -0.40831,1.6860208 -1.25382,2.3186444 -0.84551,0.5623324 -2.03719,0.8542375 -3.51682,0.8542375 -1.47963,0 -2.7019,-0.2919051 -3.5474,-0.8542375 -0.84551,-0.5623322 -1.25383,-1.3345629 -1.25383,-2.3186444 0,-0.6326236 0.19817,-1.1249086 0.55046,-1.6169496 0.42276,-0.421749 1.00796,-0.847647 1.71254,-1.128814 0.52844,-0.158155 1.11731,-0.286169 1.80429,-0.335592 z m 9.87767,0 h 0.76453 v 0.762711 c 0.70459,-0.281166 1.21933,-0.500095 1.71254,-0.640678 h 0.0612 c 0.42275,-0.140583 0.85236,-0.122033 1.34557,-0.122033 0.56367,0 1.04514,0.07298 1.46789,0.213559 0.42275,0.140583 0.77652,0.329003 0.91743,0.610169 0.21137,0.210875 0.27522,0.575756 0.27522,1.067797 v 2.5322038 c 0,0.2108746 0.0917,0.3355933 0.0917,0.3355933 0.0705,0.070292 0.0519,0.1525423 0.12232,0.1525423 0.0705,0.070292 0.28991,0.061017 0.64221,0.061017 H 5.1835 v 1.1288139 H 0.16821 v -1.1288139 c 0.42275,0 0.6422,0.00928 0.6422,-0.061017 0.21138,0 0.26594,-0.082251 0.3364,-0.1525423 0,0 0.0917,-0.1247187 0.0917,-0.3355933 v -2.2576278 c 0,-0.281166 -0.0824,-0.478861 -0.1529,-0.549152 -0.14092,-0.140584 -0.35108,-0.21356 -0.70337,-0.21356 -0.14092,0 -0.34838,-0.0093 -0.4893,0.06102 -0.14091,0 -0.20477,0.06102 -0.27523,0.06102 -0.28183,0.07029 -0.63829,0.20697 -1.1315,0.488136 v 2.4101697 c 0,0.2108746 0.0824,0.4271186 0.15291,0.4271186 0.0705,0.070292 0.26862,0.1220339 0.55046,0.1220339 h 0.27523 v 1.1288139 H -5.5198 v -1.1288139 h 0.21407 c 0.42275,0 0.69406,0.00928 0.76452,-0.061017 0.0705,0 0.14361,-0.082251 0.21407,-0.1525423 0.0705,0 0.0612,-0.1247187 0.0612,-0.3355933 v -2.8067806 h -1.25382 v -1.128813 c 1.05688,-0.07029 1.95865,-0.277261 2.87461,-0.488135 z m 11.89603,0 h 0.79511 v 0.762711 c 0.70459,-0.281166 1.2592,-0.500095 1.68195,-0.640678 h 0.0612 c 0.42276,-0.140583 0.92282,-0.122033 1.34557,-0.122033 0.56367,0 1.07572,0.07298 1.49848,0.213559 0.42275,0.140583 0.77651,0.329003 0.91743,0.610169 0.21138,0.210875 0.33639,0.575756 0.33639,1.067797 v 2.5322038 0.3355933 c 0.0705,0.070292 0.14361,0.1525423 0.21407,0.1525423 0.0705,0.070292 0.28991,0.061017 0.6422,0.061017 h 0.42814 v 1.1288139 h -5.07646 v -1.1288139 c 0.42275,0 0.6329,0.00928 0.70336,-0.061017 0.14092,0 0.20477,-0.082251 0.27523,-0.1525423 0,0 0.0612,-0.1247187 0.0612,-0.3355933 v -2.2576278 c 0,-0.281166 -0.0519,-0.478861 -0.12232,-0.549152 -0.14092,-0.140584 -0.36037,-0.21356 -0.6422,-0.21356 -0.21138,0 -0.44013,-0.0093 -0.58105,0.06102 -0.14091,0 -0.20477,0.06102 -0.27522,0.06102 -0.28183,0.07029 -0.63828,0.20697 -1.1315,0.488136 v 2.4101697 c 0,0.2108746 0.0824,0.4271186 0.15291,0.4271186 0.0705,0.070292 0.26862,0.1220339 0.55046,0.1220339 h 0.3058 v 1.1288139 H 6.37625 v -1.1288139 h 0.27523 c 0.3523,0 0.63291,0.00928 0.70337,-0.061017 0.0705,0 0.14361,-0.082251 0.21406,-0.1525423 0.0705,0 0.0612,-0.1247187 0.0612,-0.3355933 V -11.137287 H 6.37628 v -1.128814 c 1.05688,-0.07029 1.95866,-0.277261 2.87462,-0.488135 z m 12.87462,0 c 0.19597,-0.01647 0.40025,0 0.61163,0 h 0.18348 c 0.56367,0 1.06643,-0.01855 1.55964,0.122033 0.42275,0.140583 0.84037,0.277261 1.19266,0.488136 0.35229,0.210874 0.64488,0.512054 0.85626,0.79322 0.21138,0.351458 0.34838,0.624814 0.4893,0.976272 v 0.7627116 h -4.28134 -1.49848 c 0,0.4920407 0.21945,0.9298985 0.6422,1.2813562 0.28184,0.140583 0.50398,0.2653018 0.85628,0.3355933 0.21137,0.070292 0.42152,0.1525423 0.70336,0.1525423 0.35229,0 0.76061,-0.1339931 1.25382,-0.2745764 0.42276,-0.1405831 0.92282,-0.4205288 1.34557,-0.7016949 l 1.19266,0.762712 c -0.70459,0.5623322 -1.4055,0.9789562 -2.11009,1.1898306 -0.70459,0.2811663 -1.48795,0.3661018 -2.263,0.3661018 h -0.12232 c -1.26826,0 -2.33493,-0.2826305 -3.18044,-0.9152543 -0.91595,-0.6326239 -1.34556,-1.3438376 -1.34556,-2.2576276 0,-0.5623326 0.19817,-1.1249086 0.55045,-1.6169496 0.42276,-0.421749 1.00796,-0.847647 1.71254,-1.128814 0.52845,-0.158155 1.06349,-0.286169 1.65138,-0.335592 z m 10.27524,0 c 0.20147,-0.01647 0.40025,0 0.61162,0 h 0.33639 c 1.19779,0 2.13015,0.127403 2.9052,0.549152 0.77504,0.351457 1.1315,0.768081 1.1315,1.189831 0,0.210874 -0.0731,0.347552 -0.21407,0.488135 -0.0705,0.140583 -0.27792,0.29581 -0.4893,0.366102 -0.28183,0.07029 -0.51327,0.152542 -0.79511,0.152542 -0.21137,0 -0.40954,-0.09153 -0.55046,-0.09153 -0.21137,-0.07029 -0.34838,-0.133993 -0.48929,-0.274576 0,0 -0.13431,-0.155227 -0.27523,-0.366102 -0.21138,-0.281166 -0.35768,-0.417844 -0.42814,-0.488135 -0.14092,-0.140583 -0.22605,-0.21356 -0.36697,-0.21356 -0.14091,-0.07029 -0.34837,-0.06102 -0.48929,-0.06102 h -0.27523 c -0.21137,0 -0.44012,0.07298 -0.58104,0.21356 -0.28183,0.140583 -0.49199,0.267987 -0.70336,0.549153 -0.14092,0.281166 -0.27523,0.634088 -0.27523,0.9152543 0,0.4217491 0.15559,0.716339 0.36697,1.0677966 0.21138,0.2811662 0.47339,0.5000949 0.82569,0.6406781 0.0705,0.070292 0.22605,0.122034 0.36697,0.122034 0.21138,0.070292 0.48269,0.091525 0.76452,0.091525 0.42275,0 0.76991,-0.072977 1.19266,-0.2135593 0.42275,-0.1405832 0.85236,-0.4417628 1.34557,-0.7932204 l 1.28441,0.7932204 c -0.70459,0.5623324 -1.40551,0.9696816 -2.1101,1.2508476 -0.77505,0.210876 -1.54912,0.366103 -2.32415,0.366103 h -0.15291 c -1.26826,0 -2.32563,-0.2826305 -3.24159,-0.9152543 -0.84551,-0.5623324 -1.34557,-1.3531121 -1.34557,-2.1966106 0,-0.6326234 0.21945,-1.1249084 0.6422,-1.6169494 0.42275,-0.492041 0.97737,-0.908665 1.68196,-1.189831 0.4756,-0.158156 1.04697,-0.286169 1.65138,-0.335593 z m 17.5841,0 h 0.85627 v 4.4237288 c 0,0.2108746 -0.01,0.3568272 0.0612,0.4271186 0,0 0.0824,0.061017 0.15291,0.061017 0.0704,0.070292 0.25932,0.061017 0.61162,0.061017 h 0.42813 v 1.1288139 h -2.66055 -2.62997 v -1.1288139 h 0.42814 c 0.35229,0 0.51058,0.00928 0.58104,-0.061017 0.14092,0 0.21407,-0.061017 0.21407,-0.061017 0.0705,-0.070292 0.0612,-0.2255186 0.0612,-0.3661018 V -11.137287 H 46.8044 v -1.128814 c 0.42276,0 0.86166,-0.09153 1.28441,-0.09153 0.42275,-0.07029 0.84965,-0.11276 1.13149,-0.183051 0.0705,0 0.14361,-0.02123 0.21407,-0.09153 0.14092,0 0.33908,-0.05174 0.55046,-0.122034 z m 7.21712,0 c 0.21909,-0.01647 0.4438,0 0.67279,0 h 0.0917 c 0.98643,0 1.80306,0.124718 2.50765,0.335592 0.70459,0.281167 1.28979,0.636773 1.71254,1.128814 0.3523,0.492041 0.55046,0.984326 0.55046,1.6169496 0,0.9840815 -0.4296,1.6860208 -1.34557,2.3186444 -0.8455,0.5623324 -1.94544,0.8542375 -3.42508,0.8542375 -1.47963,0 -2.70189,-0.2919051 -3.54739,-0.8542375 -0.84551,-0.5623322 -1.25383,-1.3345629 -1.25383,-2.3186444 0,-0.6326236 0.12771,-1.1249086 0.55046,-1.6169496 0.3523,-0.421749 0.93749,-0.847647 1.71254,-1.128814 0.52844,-0.158155 1.11644,-0.286169 1.7737,-0.335592 z m 9.90827,0 h 0.76452 v 0.762711 c 0.63413,-0.281166 1.21933,-0.500095 1.71255,-0.640678 0.42275,-0.140583 0.91351,-0.122033 1.40673,-0.122033 0.56366,0 1.04513,0.07298 1.46788,0.213559 0.42275,0.140583 0.70605,0.329003 0.91743,0.610169 0.21138,0.210875 0.27523,0.575756 0.27523,1.067797 v 2.5322038 c 0,0.2108746 0.0212,0.3355933 0.0917,0.3355933 0.0704,0.070292 0.1436,0.1525423 0.21406,0.1525423 0.0705,0.070292 0.25933,0.061017 0.61162,0.061017 H 75 v 1.1288139 h -5.07645 v -1.1288139 c 0.35229,0 0.57174,0.00928 0.6422,-0.061017 0.14092,0 0.20477,-0.082251 0.27523,-0.1525423 0.0705,0 0.0612,-0.1247187 0.0612,-0.3355933 v -2.2576278 c 0,-0.281166 -0.0519,-0.478861 -0.12232,-0.549152 -0.14092,-0.140584 -0.36037,-0.21356 -0.6422,-0.21356 -0.21138,0 -0.33909,-0.0093 -0.55046,0.06102 -0.0705,0 -0.14361,0.06102 -0.21407,0.06102 -0.28184,0.07029 -0.70875,0.20697 -1.1315,0.488136 v 2.4101697 c 0,0.2108746 -0.01,0.4271186 0.0612,0.4271186 0.0705,0.070292 0.29921,0.1220339 0.58104,0.1220339 h 0.27523 v 1.1288139 h -5.0153 v -1.1288139 h 0.27523 c 0.42276,0 0.66349,0.00928 0.73395,-0.061017 0.14092,0 0.18349,-0.082251 0.18349,-0.1525423 0.0704,0 0.1529,-0.1247187 0.1529,-0.3355933 V -11.137287 H 64.1438 v -1.128814 c 1.05689,-0.07029 2.0504,-0.277261 2.96637,-0.488135 z m -126.483224,1.128813 c -0.140917,0.07029 -0.348379,0.05174 -0.489296,0.122034 -0.211377,0.07029 -0.409542,0.225518 -0.550459,0.366102 -0.140917,0.140583 -0.214067,0.338278 -0.214067,0.549152 h 1.253822 1.620796 c -0.07046,-0.281166 -0.134312,-0.408569 -0.27523,-0.549152 -0.07046,-0.140584 -0.27792,-0.295811 -0.489296,-0.366102 -0.211377,-0.07029 -0.430826,-0.122034 -0.642202,-0.122034 z m 82.110124,0 c -0.21138,0.07029 -0.37897,0.05174 -0.51988,0.122034 -0.28184,0.07029 -0.40955,0.225518 -0.55046,0.366102 -0.14092,0.140583 -0.20477,0.338278 -0.27523,0.549152 h 1.34557 1.52905 c 0,-0.281166 -0.0731,-0.408569 -0.21407,-0.549152 -0.14092,-0.140584 -0.27792,-0.295811 -0.4893,-0.366102 -0.21137,-0.07029 -0.43082,-0.122034 -0.6422,-0.122034 z m -93.027558,0.122034 c -0.352294,0 -0.614312,0.07298 -0.825689,0.213559 -0.281835,0.140583 -0.501285,0.359512 -0.642201,0.640678 -0.140918,0.281166 -0.27523,0.554522 -0.27523,0.9762716 0,0.5623324 0.198165,0.9909155 0.550458,1.3423732 0.281836,0.2811662 0.647585,0.4271186 1.070338,0.4271186 0.211376,0 0.348378,-0.021234 0.489296,-0.091525 h 0.06116 c 0.211377,-0.070292 0.494679,-0.1950103 0.917432,-0.3355933 v -2.0440681 c 0,-0.281166 0.0093,-0.40857 -0.06116,-0.549153 -0.07046,-0.140583 -0.207462,-0.29581 -0.489297,-0.366102 -0.140917,-0.07029 -0.287217,-0.152542 -0.428135,-0.152542 -0.140918,0 -0.226054,-0.06102 -0.366972,-0.06102 z m 58.501548,0 c -0.28183,0 -0.63559,0.07298 -0.91743,0.213559 -0.28183,0.140583 -0.50128,0.359512 -0.6422,0.640678 -0.14092,0.281166 -0.27523,0.554522 -0.27523,0.9762716 0,0.4217493 0.13431,0.7866307 0.27523,1.0677968 0.14092,0.2811662 0.36037,0.4695865 0.6422,0.6101697 0.28184,0.140583 0.56514,0.2135593 0.91743,0.2135593 0.49322,0 0.90152,-0.136678 1.25382,-0.4881358 0.35229,-0.2811661 0.55046,-0.7097492 0.55046,-1.342373 0,-0.6326236 -0.20746,-1.1222236 -0.4893,-1.4033896 -0.35229,-0.281167 -0.75132,-0.488136 -1.31498,-0.488136 z m 69.75537,0 c -0.35229,0 -0.6356,0.07298 -0.91743,0.213559 -0.28184,0.140583 -0.49199,0.359512 -0.70337,0.640678 -0.1409,0.281166 -0.21405,0.554522 -0.21405,0.9762716 0,0.4217493 0.0731,0.7866307 0.21405,1.0677968 0.14092,0.2811662 0.40025,0.4695865 0.61163,0.6101697 0.28183,0.140583 0.56513,0.2135593 0.91743,0.2135593 h 0.0917 c 0.49321,0 0.90153,-0.136678 1.25383,-0.4881358 0.35229,-0.2811661 0.48929,-0.7097492 0.48929,-1.342373 0,-0.6326236 -0.137,-1.1222236 -0.48929,-1.4033896 -0.3523,-0.281167 -0.76062,-0.488136 -1.25383,-0.488136 z"
     style="display:inline;fill:#fff200;fill-opacity:1;stroke-width:0.977432"
     id="path1"
     inkscape:label="Logo Text" /></g><g
   inkscape:groupmode="layer"
   id="layer3"
   inkscape:label="Logo Bold"
   style="display:inline"
   sodipodi:insensitive="true"
   transform="translate(85,77)"><path
     d="m -66,-62.348445 v 4.93885 h 2.058558 c 1.79656,0 3.043173,0.0743 3.618073,0.217434 0.574899,0.2147 1.000833,0.428158 1.21642,0.714425 0.28745,0.357834 0.436664,1.069773 0.436664,2.143274 v 19.444781 c 0,1.145067 -0.158696,1.888069 -0.374283,2.174336 -0.359312,0.4294 -0.797473,0.695539 -1.372372,0.838673 -0.574899,0.2147 -1.727942,0.279557 -3.524502,0.279557 H -66 v 4.93885 h 28.289582 c 1.724697,0 3.962912,-0.06486 6.549958,-0.279557 1.006074,-0.07157 2.093991,-0.207991 3.243789,-0.279558 4.096157,-0.4294 7.25411,-0.91844 9.481845,-1.490973 3.01822,-0.858801 5.740757,-2.0814 8.327804,-3.727434 2.587046,-1.574468 4.539058,-3.431973 5.832582,-5.435842 1.293523,-2.075435 1.933797,-4.381474 1.933797,-6.957876 0,-3.72147 -1.29003,-6.856988 -3.805214,-9.504957 -2.587046,-2.647969 -6.043428,-4.66625 -10.355172,-6.026018 -3.736845,-1.145067 -8.622989,-1.844831 -14.659431,-1.987965 h -2.713554 z m 22.394619,5.715399 h 6.768291 c 2.155872,0 4.023795,0.06486 5.67663,0.279558 1.652835,0.2147 3.09208,0.511901 4.241878,0.869734 2.299597,0.787234 4.323472,2.136814 5.832582,4.069116 1.580973,1.932301 2.370461,4.226164 2.370461,6.802566 0,2.64797 -0.873577,4.870266 -2.526412,6.802567 -1.652836,1.860735 -3.89105,3.303501 -6.549959,4.162302 -1.006073,0.286267 -2.146889,0.561848 -3.36855,0.776548 -2.227734,0.286267 -4.872919,0.496992 -7.89114,0.496992 -1.724698,0 -2.874995,-0.05268 -3.306169,-0.124248 -0.431175,-0.07157 -0.813692,-0.313353 -1.02928,-0.528053 -0.143724,-0.214701 -0.218332,-0.641616 -0.218332,-1.42885 z"
     id="path2962"
     style="display:inline;stroke-width:0.996034"
     inkscape:label="D" /><path
     d="m 51.483795,-62.355899 h 6.252029 l 6.036442,12.810444 -8.192314,1.359768 c -2.730771,-3.005802 -5.245955,-5.224371 -7.689277,-6.441005 -3.30567,-1.789169 -6.970653,-2.64797 -10.851222,-2.64797 -2.874496,0 -5.533405,0.429401 -7.976727,1.359768 -2.515183,0.930368 -4.455468,2.290136 -5.892716,4.079304 -1.437248,1.789168 -2.155872,3.864604 -2.155872,6.297872 0,3.649904 1.652835,6.79884 4.958505,9.446809 3.305671,2.647969 7.689277,4.007737 13.078957,4.007737 3.449395,0 6.755066,-0.572534 9.917011,-1.717602 3.952432,-1.431334 7.329965,-3.363636 10.276323,-5.725338 L 66,-36.591876 c -4.383606,3.50677 -8.479763,6.011605 -12.144746,7.371373 C 48.249987,-27.073501 41.926096,-26 34.955443,-26 c -5.748992,0 -10.994947,-0.858801 -15.666003,-2.433269 -4.671056,-1.646035 -8.407901,-3.864603 -11.210534,-6.798839 -2.802634,-2.86267 -4.168019,-6.083172 -4.168019,-9.518376 0,-3.363636 1.365385,-6.512572 4.096156,-9.303675 2.658909,-2.791102 6.395754,-5.009671 11.06681,-6.584139 C 23.744909,-62.212766 28.990864,-63 34.739856,-63 c 5.820854,0 10.923085,0.715667 15.306691,2.147002 z"
     id="path2914"
     style="display:inline;stroke-width:0.996034"
     inkscape:label="C" /></g></svg>
